<mxfile host="app.diagrams.net" modified="2024-04-12T06:07:14.310Z" agent="Mozilla/5.0 (Windows NT 10.0; Win64; x64) AppleWebKit/537.36 (KHTML, like Gecko) Chrome/123.0.0.0 Safari/537.36" etag="pMxzRfjKltQesVxTS4dI" version="24.2.3" type="device">
  <diagram id="KqG7Npp-WbMj_4ZWHxug" name="Page-1">
    <mxGraphModel dx="1914" dy="2084" grid="1" gridSize="10" guides="1" tooltips="1" connect="1" arrows="1" fold="1" page="1" pageScale="1" pageWidth="827" pageHeight="1169" math="0" shadow="0">
      <root>
        <mxCell id="0" />
        <mxCell id="1" parent="0" />
        <mxCell id="cgsZbXqbfDDy_r3Hs2pA-1" value="members" style="swimlane;fontStyle=0;childLayout=stackLayout;horizontal=1;startSize=30;horizontalStack=0;resizeParent=1;resizeParentMax=0;resizeLast=0;collapsible=1;marginBottom=0;whiteSpace=wrap;html=1;" parent="1" vertex="1">
          <mxGeometry x="570" y="80" width="140" height="120" as="geometry" />
        </mxCell>
        <mxCell id="cgsZbXqbfDDy_r3Hs2pA-2" value="&lt;u&gt;member_id&lt;/u&gt;" style="text;strokeColor=none;fillColor=none;align=left;verticalAlign=middle;spacingLeft=4;spacingRight=4;overflow=hidden;points=[[0,0.5],[1,0.5]];portConstraint=eastwest;rotatable=0;whiteSpace=wrap;html=1;movable=0;resizable=0;deletable=0;editable=0;locked=1;connectable=0;" parent="cgsZbXqbfDDy_r3Hs2pA-1" vertex="1">
          <mxGeometry y="30" width="140" height="30" as="geometry" />
        </mxCell>
        <mxCell id="cgsZbXqbfDDy_r3Hs2pA-3" value="username" style="text;strokeColor=none;fillColor=none;align=left;verticalAlign=middle;spacingLeft=4;spacingRight=4;overflow=hidden;points=[[0,0.5],[1,0.5]];portConstraint=eastwest;rotatable=0;whiteSpace=wrap;html=1;movable=0;resizable=0;deletable=0;editable=0;locked=1;connectable=0;" parent="cgsZbXqbfDDy_r3Hs2pA-1" vertex="1">
          <mxGeometry y="60" width="140" height="30" as="geometry" />
        </mxCell>
        <mxCell id="cgsZbXqbfDDy_r3Hs2pA-4" value="password" style="text;strokeColor=none;fillColor=none;align=left;verticalAlign=middle;spacingLeft=4;spacingRight=4;overflow=hidden;points=[[0,0.5],[1,0.5]];portConstraint=eastwest;rotatable=0;whiteSpace=wrap;html=1;movable=0;resizable=0;deletable=0;editable=0;locked=1;connectable=0;" parent="cgsZbXqbfDDy_r3Hs2pA-1" vertex="1">
          <mxGeometry y="90" width="140" height="30" as="geometry" />
        </mxCell>
        <mxCell id="cgsZbXqbfDDy_r3Hs2pA-8" value="trainers" style="swimlane;fontStyle=0;childLayout=stackLayout;horizontal=1;startSize=30;horizontalStack=0;resizeParent=1;resizeParentMax=0;resizeLast=0;collapsible=1;marginBottom=0;whiteSpace=wrap;html=1;" parent="1" vertex="1">
          <mxGeometry x="240" y="860" width="140" height="120" as="geometry" />
        </mxCell>
        <mxCell id="cgsZbXqbfDDy_r3Hs2pA-9" value="&lt;u&gt;trainer_id&lt;/u&gt;" style="text;strokeColor=none;fillColor=none;align=left;verticalAlign=middle;spacingLeft=4;spacingRight=4;overflow=hidden;points=[[0,0.5],[1,0.5]];portConstraint=eastwest;rotatable=0;whiteSpace=wrap;html=1;movable=0;resizable=0;deletable=0;editable=0;locked=1;connectable=0;" parent="cgsZbXqbfDDy_r3Hs2pA-8" vertex="1">
          <mxGeometry y="30" width="140" height="30" as="geometry" />
        </mxCell>
        <mxCell id="cgsZbXqbfDDy_r3Hs2pA-10" value="username" style="text;strokeColor=none;fillColor=none;align=left;verticalAlign=middle;spacingLeft=4;spacingRight=4;overflow=hidden;points=[[0,0.5],[1,0.5]];portConstraint=eastwest;rotatable=0;whiteSpace=wrap;html=1;movable=0;resizable=0;deletable=0;editable=0;locked=1;connectable=0;" parent="cgsZbXqbfDDy_r3Hs2pA-8" vertex="1">
          <mxGeometry y="60" width="140" height="30" as="geometry" />
        </mxCell>
        <mxCell id="cgsZbXqbfDDy_r3Hs2pA-11" value="password" style="text;strokeColor=none;fillColor=none;align=left;verticalAlign=middle;spacingLeft=4;spacingRight=4;overflow=hidden;points=[[0,0.5],[1,0.5]];portConstraint=eastwest;rotatable=0;whiteSpace=wrap;html=1;movable=0;resizable=0;deletable=0;editable=0;locked=1;connectable=0;" parent="cgsZbXqbfDDy_r3Hs2pA-8" vertex="1">
          <mxGeometry y="90" width="140" height="30" as="geometry" />
        </mxCell>
        <mxCell id="WSwrUoSP9K7NW8e2uTdf-109" style="rounded=0;orthogonalLoop=1;jettySize=auto;html=1;exitX=0;exitY=0.75;exitDx=0;exitDy=0;entryX=1;entryY=0;entryDx=0;entryDy=0;endArrow=none;endFill=0;" edge="1" parent="1" source="cgsZbXqbfDDy_r3Hs2pA-12" target="WSwrUoSP9K7NW8e2uTdf-108">
          <mxGeometry relative="1" as="geometry" />
        </mxCell>
        <mxCell id="cgsZbXqbfDDy_r3Hs2pA-12" value="administrators" style="swimlane;fontStyle=0;childLayout=stackLayout;horizontal=1;startSize=30;horizontalStack=0;resizeParent=1;resizeParentMax=0;resizeLast=0;collapsible=1;marginBottom=0;whiteSpace=wrap;html=1;" parent="1" vertex="1">
          <mxGeometry x="-40" y="80" width="140" height="120" as="geometry" />
        </mxCell>
        <mxCell id="cgsZbXqbfDDy_r3Hs2pA-13" value="&lt;u&gt;admin_id&lt;/u&gt;" style="text;strokeColor=none;fillColor=none;align=left;verticalAlign=middle;spacingLeft=4;spacingRight=4;overflow=hidden;points=[[0,0.5],[1,0.5]];portConstraint=eastwest;rotatable=0;whiteSpace=wrap;html=1;movable=0;resizable=0;deletable=0;editable=0;locked=1;connectable=0;" parent="cgsZbXqbfDDy_r3Hs2pA-12" vertex="1">
          <mxGeometry y="30" width="140" height="30" as="geometry" />
        </mxCell>
        <mxCell id="cgsZbXqbfDDy_r3Hs2pA-14" value="username" style="text;strokeColor=none;fillColor=none;align=left;verticalAlign=middle;spacingLeft=4;spacingRight=4;overflow=hidden;points=[[0,0.5],[1,0.5]];portConstraint=eastwest;rotatable=0;whiteSpace=wrap;html=1;movable=0;resizable=0;deletable=0;editable=0;locked=1;connectable=0;" parent="cgsZbXqbfDDy_r3Hs2pA-12" vertex="1">
          <mxGeometry y="60" width="140" height="30" as="geometry" />
        </mxCell>
        <mxCell id="cgsZbXqbfDDy_r3Hs2pA-15" value="password" style="text;strokeColor=none;fillColor=none;align=left;verticalAlign=middle;spacingLeft=4;spacingRight=4;overflow=hidden;points=[[0,0.5],[1,0.5]];portConstraint=eastwest;rotatable=0;whiteSpace=wrap;html=1;movable=0;resizable=0;deletable=0;editable=0;locked=1;connectable=0;" parent="cgsZbXqbfDDy_r3Hs2pA-12" vertex="1">
          <mxGeometry y="90" width="140" height="30" as="geometry" />
        </mxCell>
        <mxCell id="cgsZbXqbfDDy_r3Hs2pA-42" value="member_schedule" style="swimlane;fontStyle=0;childLayout=stackLayout;horizontal=1;startSize=30;horizontalStack=0;resizeParent=1;resizeParentMax=0;resizeLast=0;collapsible=1;marginBottom=0;whiteSpace=wrap;html=1;" parent="1" vertex="1">
          <mxGeometry x="570" y="520" width="140" height="210" as="geometry" />
        </mxCell>
        <mxCell id="cgsZbXqbfDDy_r3Hs2pA-43" value="&lt;u&gt;session_id&lt;/u&gt;" style="text;strokeColor=none;fillColor=none;align=left;verticalAlign=middle;spacingLeft=4;spacingRight=4;overflow=hidden;points=[[0,0.5],[1,0.5]];portConstraint=eastwest;rotatable=1;whiteSpace=wrap;html=1;movable=1;resizable=1;deletable=1;editable=1;locked=0;connectable=1;" parent="cgsZbXqbfDDy_r3Hs2pA-42" vertex="1">
          <mxGeometry y="30" width="140" height="30" as="geometry" />
        </mxCell>
        <mxCell id="WSwrUoSP9K7NW8e2uTdf-38" value="member_id" style="text;strokeColor=none;fillColor=none;align=left;verticalAlign=middle;spacingLeft=4;spacingRight=4;overflow=hidden;points=[[0,0.5],[1,0.5]];portConstraint=eastwest;rotatable=1;whiteSpace=wrap;html=1;movable=1;resizable=1;deletable=1;editable=1;locked=0;connectable=1;" vertex="1" parent="cgsZbXqbfDDy_r3Hs2pA-42">
          <mxGeometry y="60" width="140" height="30" as="geometry" />
        </mxCell>
        <mxCell id="cgsZbXqbfDDy_r3Hs2pA-45" value="session" style="text;strokeColor=none;fillColor=none;align=left;verticalAlign=middle;spacingLeft=4;spacingRight=4;overflow=hidden;points=[[0,0.5],[1,0.5]];portConstraint=eastwest;rotatable=1;whiteSpace=wrap;html=1;movable=1;resizable=1;deletable=1;editable=1;locked=0;connectable=1;" parent="cgsZbXqbfDDy_r3Hs2pA-42" vertex="1">
          <mxGeometry y="90" width="140" height="30" as="geometry" />
        </mxCell>
        <mxCell id="WSwrUoSP9K7NW8e2uTdf-56" value="&lt;span style=&quot;white-space: pre;&quot;&gt;&#x9;&lt;/span&gt;session_day" style="text;strokeColor=none;fillColor=none;align=left;verticalAlign=middle;spacingLeft=4;spacingRight=4;overflow=hidden;points=[[0,0.5],[1,0.5]];portConstraint=eastwest;rotatable=1;whiteSpace=wrap;html=1;movable=1;resizable=1;deletable=1;editable=1;locked=0;connectable=1;" vertex="1" parent="cgsZbXqbfDDy_r3Hs2pA-42">
          <mxGeometry y="120" width="140" height="30" as="geometry" />
        </mxCell>
        <mxCell id="WSwrUoSP9K7NW8e2uTdf-39" value="&lt;span style=&quot;white-space: pre;&quot;&gt;&#x9;&lt;/span&gt;start_time" style="text;strokeColor=none;fillColor=none;align=left;verticalAlign=middle;spacingLeft=4;spacingRight=4;overflow=hidden;points=[[0,0.5],[1,0.5]];portConstraint=eastwest;rotatable=1;whiteSpace=wrap;html=1;movable=1;resizable=1;deletable=1;editable=1;locked=0;connectable=1;" vertex="1" parent="cgsZbXqbfDDy_r3Hs2pA-42">
          <mxGeometry y="150" width="140" height="30" as="geometry" />
        </mxCell>
        <mxCell id="WSwrUoSP9K7NW8e2uTdf-37" value="&lt;span style=&quot;white-space: pre;&quot;&gt;&#x9;&lt;/span&gt;end_time" style="text;strokeColor=none;fillColor=none;align=left;verticalAlign=middle;spacingLeft=4;spacingRight=4;overflow=hidden;points=[[0,0.5],[1,0.5]];portConstraint=eastwest;rotatable=1;whiteSpace=wrap;html=1;movable=1;resizable=1;deletable=1;editable=1;locked=0;connectable=1;" vertex="1" parent="cgsZbXqbfDDy_r3Hs2pA-42">
          <mxGeometry y="180" width="140" height="30" as="geometry" />
        </mxCell>
        <mxCell id="cgsZbXqbfDDy_r3Hs2pA-52" value="class_schedule" style="swimlane;fontStyle=0;childLayout=stackLayout;horizontal=1;startSize=30;horizontalStack=0;resizeParent=1;resizeParentMax=0;resizeLast=0;collapsible=1;marginBottom=0;whiteSpace=wrap;html=1;movable=1;resizable=1;rotatable=1;deletable=1;editable=1;locked=0;connectable=1;" parent="1" vertex="1">
          <mxGeometry x="-40" y="530" width="140" height="210" as="geometry" />
        </mxCell>
        <mxCell id="cgsZbXqbfDDy_r3Hs2pA-53" value="&lt;u&gt;class_id&lt;/u&gt;" style="text;strokeColor=none;fillColor=none;align=left;verticalAlign=middle;spacingLeft=4;spacingRight=4;overflow=hidden;points=[[0,0.5],[1,0.5]];portConstraint=eastwest;rotatable=1;whiteSpace=wrap;html=1;movable=1;resizable=1;deletable=1;editable=1;locked=0;connectable=1;" parent="cgsZbXqbfDDy_r3Hs2pA-52" vertex="1">
          <mxGeometry y="30" width="140" height="30" as="geometry" />
        </mxCell>
        <mxCell id="cgsZbXqbfDDy_r3Hs2pA-55" value="class" style="text;strokeColor=none;fillColor=none;align=left;verticalAlign=middle;spacingLeft=4;spacingRight=4;overflow=hidden;points=[[0,0.5],[1,0.5]];portConstraint=eastwest;rotatable=1;whiteSpace=wrap;html=1;movable=1;resizable=1;deletable=1;editable=1;locked=0;connectable=1;" parent="cgsZbXqbfDDy_r3Hs2pA-52" vertex="1">
          <mxGeometry y="60" width="140" height="30" as="geometry" />
        </mxCell>
        <mxCell id="WSwrUoSP9K7NW8e2uTdf-58" value="&lt;span style=&quot;white-space: pre;&quot;&gt;&#x9;&lt;/span&gt;class_name" style="text;strokeColor=none;fillColor=none;align=left;verticalAlign=middle;spacingLeft=4;spacingRight=4;overflow=hidden;points=[[0,0.5],[1,0.5]];portConstraint=eastwest;rotatable=1;whiteSpace=wrap;html=1;movable=1;resizable=1;deletable=1;editable=1;locked=0;connectable=1;" vertex="1" parent="cgsZbXqbfDDy_r3Hs2pA-52">
          <mxGeometry y="90" width="140" height="30" as="geometry" />
        </mxCell>
        <mxCell id="WSwrUoSP9K7NW8e2uTdf-45" value="&lt;span style=&quot;white-space: pre;&quot;&gt;&#x9;&lt;/span&gt;session_day" style="text;strokeColor=none;fillColor=none;align=left;verticalAlign=middle;spacingLeft=4;spacingRight=4;overflow=hidden;points=[[0,0.5],[1,0.5]];portConstraint=eastwest;rotatable=1;whiteSpace=wrap;html=1;movable=1;resizable=1;deletable=1;editable=1;locked=0;connectable=1;" vertex="1" parent="cgsZbXqbfDDy_r3Hs2pA-52">
          <mxGeometry y="120" width="140" height="30" as="geometry" />
        </mxCell>
        <mxCell id="WSwrUoSP9K7NW8e2uTdf-46" value="&lt;span style=&quot;white-space: pre;&quot;&gt;&#x9;&lt;/span&gt;start_time" style="text;strokeColor=none;fillColor=none;align=left;verticalAlign=middle;spacingLeft=4;spacingRight=4;overflow=hidden;points=[[0,0.5],[1,0.5]];portConstraint=eastwest;rotatable=1;whiteSpace=wrap;html=1;movable=1;resizable=1;deletable=1;editable=1;locked=0;connectable=1;" vertex="1" parent="cgsZbXqbfDDy_r3Hs2pA-52">
          <mxGeometry y="150" width="140" height="30" as="geometry" />
        </mxCell>
        <mxCell id="WSwrUoSP9K7NW8e2uTdf-47" value="&lt;span style=&quot;white-space: pre;&quot;&gt;&#x9;&lt;/span&gt;end_time" style="text;strokeColor=none;fillColor=none;align=left;verticalAlign=middle;spacingLeft=4;spacingRight=4;overflow=hidden;points=[[0,0.5],[1,0.5]];portConstraint=eastwest;rotatable=1;whiteSpace=wrap;html=1;movable=1;resizable=1;deletable=1;editable=1;locked=0;connectable=1;" vertex="1" parent="cgsZbXqbfDDy_r3Hs2pA-52">
          <mxGeometry y="180" width="140" height="30" as="geometry" />
        </mxCell>
        <mxCell id="WSwrUoSP9K7NW8e2uTdf-104" style="rounded=0;orthogonalLoop=1;jettySize=auto;html=1;entryX=0;entryY=0.5;entryDx=0;entryDy=0;endArrow=none;endFill=0;exitX=1;exitY=1;exitDx=0;exitDy=0;" edge="1" parent="1" source="WSwrUoSP9K7NW8e2uTdf-105" target="cgsZbXqbfDDy_r3Hs2pA-12">
          <mxGeometry relative="1" as="geometry">
            <mxPoint x="-120" y="160" as="sourcePoint" />
          </mxGeometry>
        </mxCell>
        <mxCell id="WSwrUoSP9K7NW8e2uTdf-24" value="rooms" style="swimlane;fontStyle=0;childLayout=stackLayout;horizontal=1;startSize=30;horizontalStack=0;resizeParent=1;resizeParentMax=0;resizeLast=0;collapsible=1;marginBottom=0;whiteSpace=wrap;html=1;" vertex="1" parent="1">
          <mxGeometry x="-350" y="-130" width="140" height="120" as="geometry" />
        </mxCell>
        <mxCell id="WSwrUoSP9K7NW8e2uTdf-25" value="&lt;u&gt;room_id&lt;/u&gt;" style="text;strokeColor=none;fillColor=none;align=left;verticalAlign=middle;spacingLeft=4;spacingRight=4;overflow=hidden;points=[[0,0.5],[1,0.5]];portConstraint=eastwest;rotatable=0;whiteSpace=wrap;html=1;movable=0;resizable=0;deletable=0;editable=0;locked=1;connectable=0;" vertex="1" parent="WSwrUoSP9K7NW8e2uTdf-24">
          <mxGeometry y="30" width="140" height="30" as="geometry" />
        </mxCell>
        <mxCell id="WSwrUoSP9K7NW8e2uTdf-26" value="status" style="text;strokeColor=none;fillColor=none;align=left;verticalAlign=middle;spacingLeft=4;spacingRight=4;overflow=hidden;points=[[0,0.5],[1,0.5]];portConstraint=eastwest;rotatable=0;whiteSpace=wrap;html=1;movable=0;resizable=0;deletable=0;editable=0;locked=1;connectable=0;" vertex="1" parent="WSwrUoSP9K7NW8e2uTdf-24">
          <mxGeometry y="60" width="140" height="30" as="geometry" />
        </mxCell>
        <mxCell id="WSwrUoSP9K7NW8e2uTdf-27" value="usage" style="text;strokeColor=none;fillColor=none;align=left;verticalAlign=middle;spacingLeft=4;spacingRight=4;overflow=hidden;points=[[0,0.5],[1,0.5]];portConstraint=eastwest;rotatable=0;whiteSpace=wrap;html=1;movable=0;resizable=0;deletable=0;editable=0;locked=1;connectable=0;" vertex="1" parent="WSwrUoSP9K7NW8e2uTdf-24">
          <mxGeometry y="90" width="140" height="30" as="geometry" />
        </mxCell>
        <mxCell id="WSwrUoSP9K7NW8e2uTdf-28" value="equipment" style="swimlane;fontStyle=0;childLayout=stackLayout;horizontal=1;startSize=30;horizontalStack=0;resizeParent=1;resizeParentMax=0;resizeLast=0;collapsible=1;marginBottom=0;whiteSpace=wrap;html=1;" vertex="1" parent="1">
          <mxGeometry x="-350" y="340" width="140" height="120" as="geometry" />
        </mxCell>
        <mxCell id="WSwrUoSP9K7NW8e2uTdf-29" value="&lt;u&gt;equipemt_id&lt;/u&gt;" style="text;strokeColor=none;fillColor=none;align=left;verticalAlign=middle;spacingLeft=4;spacingRight=4;overflow=hidden;points=[[0,0.5],[1,0.5]];portConstraint=eastwest;rotatable=0;whiteSpace=wrap;html=1;" vertex="1" parent="WSwrUoSP9K7NW8e2uTdf-28">
          <mxGeometry y="30" width="140" height="30" as="geometry" />
        </mxCell>
        <mxCell id="WSwrUoSP9K7NW8e2uTdf-30" value="equipment_name" style="text;strokeColor=none;fillColor=none;align=left;verticalAlign=middle;spacingLeft=4;spacingRight=4;overflow=hidden;points=[[0,0.5],[1,0.5]];portConstraint=eastwest;rotatable=0;whiteSpace=wrap;html=1;" vertex="1" parent="WSwrUoSP9K7NW8e2uTdf-28">
          <mxGeometry y="60" width="140" height="30" as="geometry" />
        </mxCell>
        <mxCell id="WSwrUoSP9K7NW8e2uTdf-31" value="equipment_status" style="text;strokeColor=none;fillColor=none;align=left;verticalAlign=middle;spacingLeft=4;spacingRight=4;overflow=hidden;points=[[0,0.5],[1,0.5]];portConstraint=eastwest;rotatable=0;whiteSpace=wrap;html=1;" vertex="1" parent="WSwrUoSP9K7NW8e2uTdf-28">
          <mxGeometry y="90" width="140" height="30" as="geometry" />
        </mxCell>
        <mxCell id="WSwrUoSP9K7NW8e2uTdf-32" value="bills" style="swimlane;fontStyle=0;childLayout=stackLayout;horizontal=1;startSize=30;horizontalStack=0;resizeParent=1;resizeParentMax=0;resizeLast=0;collapsible=1;marginBottom=0;whiteSpace=wrap;html=1;" vertex="1" parent="1">
          <mxGeometry x="130" y="-300" width="140" height="150" as="geometry" />
        </mxCell>
        <mxCell id="WSwrUoSP9K7NW8e2uTdf-33" value="&lt;u&gt;bill_id&lt;/u&gt;" style="text;strokeColor=none;fillColor=none;align=left;verticalAlign=middle;spacingLeft=4;spacingRight=4;overflow=hidden;points=[[0,0.5],[1,0.5]];portConstraint=eastwest;rotatable=0;whiteSpace=wrap;html=1;movable=0;resizable=0;deletable=0;editable=0;locked=1;connectable=0;" vertex="1" parent="WSwrUoSP9K7NW8e2uTdf-32">
          <mxGeometry y="30" width="140" height="30" as="geometry" />
        </mxCell>
        <mxCell id="WSwrUoSP9K7NW8e2uTdf-34" value="member_name" style="text;strokeColor=none;fillColor=none;align=left;verticalAlign=middle;spacingLeft=4;spacingRight=4;overflow=hidden;points=[[0,0.5],[1,0.5]];portConstraint=eastwest;rotatable=0;whiteSpace=wrap;html=1;movable=0;resizable=0;deletable=0;editable=0;locked=1;connectable=0;" vertex="1" parent="WSwrUoSP9K7NW8e2uTdf-32">
          <mxGeometry y="60" width="140" height="30" as="geometry" />
        </mxCell>
        <mxCell id="WSwrUoSP9K7NW8e2uTdf-35" value="amount" style="text;strokeColor=none;fillColor=none;align=left;verticalAlign=middle;spacingLeft=4;spacingRight=4;overflow=hidden;points=[[0,0.5],[1,0.5]];portConstraint=eastwest;rotatable=0;whiteSpace=wrap;html=1;movable=0;resizable=0;deletable=0;editable=0;locked=1;connectable=0;" vertex="1" parent="WSwrUoSP9K7NW8e2uTdf-32">
          <mxGeometry y="90" width="140" height="30" as="geometry" />
        </mxCell>
        <mxCell id="WSwrUoSP9K7NW8e2uTdf-52" value="item" style="text;strokeColor=none;fillColor=none;align=left;verticalAlign=middle;spacingLeft=4;spacingRight=4;overflow=hidden;points=[[0,0.5],[1,0.5]];portConstraint=eastwest;rotatable=0;whiteSpace=wrap;html=1;movable=0;resizable=0;deletable=0;editable=0;locked=1;connectable=0;" vertex="1" parent="WSwrUoSP9K7NW8e2uTdf-32">
          <mxGeometry y="120" width="140" height="30" as="geometry" />
        </mxCell>
        <mxCell id="WSwrUoSP9K7NW8e2uTdf-77" style="edgeStyle=orthogonalEdgeStyle;rounded=0;orthogonalLoop=1;jettySize=auto;html=1;entryX=0.5;entryY=1;entryDx=0;entryDy=0;" edge="1" parent="1" target="cgsZbXqbfDDy_r3Hs2pA-1">
          <mxGeometry relative="1" as="geometry">
            <mxPoint x="640" y="320" as="sourcePoint" />
          </mxGeometry>
        </mxCell>
        <mxCell id="WSwrUoSP9K7NW8e2uTdf-65" value="" style="group" vertex="1" connectable="0" parent="1">
          <mxGeometry x="235" y="1040" width="150" height="100" as="geometry" />
        </mxCell>
        <mxCell id="WSwrUoSP9K7NW8e2uTdf-63" value="" style="rhombus;whiteSpace=wrap;html=1;" vertex="1" parent="WSwrUoSP9K7NW8e2uTdf-65">
          <mxGeometry width="150" height="100" as="geometry" />
        </mxCell>
        <mxCell id="WSwrUoSP9K7NW8e2uTdf-60" value="Schedules" style="rhombus;whiteSpace=wrap;html=1;" vertex="1" parent="WSwrUoSP9K7NW8e2uTdf-65">
          <mxGeometry x="15" y="10" width="120" height="80" as="geometry" />
        </mxCell>
        <mxCell id="WSwrUoSP9K7NW8e2uTdf-79" style="rounded=0;orthogonalLoop=1;jettySize=auto;html=1;entryX=0.5;entryY=1;entryDx=0;entryDy=0;endArrow=none;endFill=0;" edge="1" parent="1" source="WSwrUoSP9K7NW8e2uTdf-68" target="cgsZbXqbfDDy_r3Hs2pA-12">
          <mxGeometry relative="1" as="geometry">
            <mxPoint x="130" y="230" as="targetPoint" />
          </mxGeometry>
        </mxCell>
        <mxCell id="WSwrUoSP9K7NW8e2uTdf-68" value="Schedules" style="rhombus;whiteSpace=wrap;html=1;" vertex="1" parent="1">
          <mxGeometry x="-30" y="320" width="120" height="80" as="geometry" />
        </mxCell>
        <mxCell id="WSwrUoSP9K7NW8e2uTdf-72" style="edgeStyle=orthogonalEdgeStyle;rounded=0;orthogonalLoop=1;jettySize=auto;html=1;entryX=0.5;entryY=1;entryDx=0;entryDy=0;exitX=0.5;exitY=0;exitDx=0;exitDy=0;" edge="1" parent="1" source="WSwrUoSP9K7NW8e2uTdf-63" target="cgsZbXqbfDDy_r3Hs2pA-8">
          <mxGeometry relative="1" as="geometry">
            <mxPoint x="310" y="1110" as="sourcePoint" />
          </mxGeometry>
        </mxCell>
        <mxCell id="WSwrUoSP9K7NW8e2uTdf-74" value="" style="shape=link;html=1;rounded=0;entryX=0.5;entryY=0;entryDx=0;entryDy=0;exitX=0.5;exitY=1;exitDx=0;exitDy=0;" edge="1" parent="1" source="WSwrUoSP9K7NW8e2uTdf-63" target="cgsZbXqbfDDy_r3Hs2pA-28">
          <mxGeometry relative="1" as="geometry">
            <mxPoint x="75" y="1220" as="sourcePoint" />
            <mxPoint x="235" y="1220" as="targetPoint" />
          </mxGeometry>
        </mxCell>
        <mxCell id="WSwrUoSP9K7NW8e2uTdf-78" value="" style="shape=link;html=1;rounded=0;entryX=0.5;entryY=0;entryDx=0;entryDy=0;exitX=0.5;exitY=1;exitDx=0;exitDy=0;" edge="1" parent="1" target="cgsZbXqbfDDy_r3Hs2pA-42">
          <mxGeometry relative="1" as="geometry">
            <mxPoint x="640" y="400" as="sourcePoint" />
            <mxPoint x="1000" y="530" as="targetPoint" />
          </mxGeometry>
        </mxCell>
        <mxCell id="WSwrUoSP9K7NW8e2uTdf-80" value="" style="shape=link;html=1;rounded=0;exitX=0.5;exitY=1;exitDx=0;exitDy=0;" edge="1" parent="1" source="WSwrUoSP9K7NW8e2uTdf-68" target="cgsZbXqbfDDy_r3Hs2pA-52">
          <mxGeometry relative="1" as="geometry">
            <mxPoint x="380" y="410" as="sourcePoint" />
            <mxPoint x="380" y="530" as="targetPoint" />
          </mxGeometry>
        </mxCell>
        <mxCell id="WSwrUoSP9K7NW8e2uTdf-82" style="edgeStyle=orthogonalEdgeStyle;rounded=0;orthogonalLoop=1;jettySize=auto;html=1;entryX=1;entryY=0.5;entryDx=0;entryDy=0;exitX=0;exitY=0.5;exitDx=0;exitDy=0;" edge="1" parent="1" source="WSwrUoSP9K7NW8e2uTdf-121" target="cgsZbXqbfDDy_r3Hs2pA-1">
          <mxGeometry relative="1" as="geometry">
            <mxPoint x="860" y="140" as="sourcePoint" />
          </mxGeometry>
        </mxCell>
        <mxCell id="WSwrUoSP9K7NW8e2uTdf-88" style="rounded=0;orthogonalLoop=1;jettySize=auto;html=1;entryX=1;entryY=1;entryDx=0;entryDy=0;exitX=0;exitY=0;exitDx=0;exitDy=0;" edge="1" parent="1" source="WSwrUoSP9K7NW8e2uTdf-115" target="cgsZbXqbfDDy_r3Hs2pA-1">
          <mxGeometry relative="1" as="geometry">
            <mxPoint x="808.8000000000002" y="260.8000000000002" as="sourcePoint" />
          </mxGeometry>
        </mxCell>
        <mxCell id="WSwrUoSP9K7NW8e2uTdf-89" value="" style="shape=link;html=1;rounded=0;entryX=0;entryY=0;entryDx=0;entryDy=0;exitX=1;exitY=1;exitDx=0;exitDy=0;" edge="1" parent="1" source="WSwrUoSP9K7NW8e2uTdf-115" target="WSwrUoSP9K7NW8e2uTdf-12">
          <mxGeometry relative="1" as="geometry">
            <mxPoint x="870" y="300" as="sourcePoint" />
            <mxPoint x="1480" y="540" as="targetPoint" />
          </mxGeometry>
        </mxCell>
        <mxCell id="WSwrUoSP9K7NW8e2uTdf-90" value="" style="shape=link;html=1;rounded=0;exitX=1;exitY=0.5;exitDx=0;exitDy=0;entryX=0;entryY=0.5;entryDx=0;entryDy=0;" edge="1" parent="1" source="WSwrUoSP9K7NW8e2uTdf-121" target="WSwrUoSP9K7NW8e2uTdf-6">
          <mxGeometry relative="1" as="geometry">
            <mxPoint x="980" y="140" as="sourcePoint" />
            <mxPoint x="1070" y="140" as="targetPoint" />
          </mxGeometry>
        </mxCell>
        <mxCell id="WSwrUoSP9K7NW8e2uTdf-102" style="edgeStyle=orthogonalEdgeStyle;rounded=0;orthogonalLoop=1;jettySize=auto;html=1;endArrow=none;endFill=0;" edge="1" parent="1" source="WSwrUoSP9K7NW8e2uTdf-91" target="cgsZbXqbfDDy_r3Hs2pA-12">
          <mxGeometry relative="1" as="geometry" />
        </mxCell>
        <mxCell id="WSwrUoSP9K7NW8e2uTdf-91" value="Issues" style="rhombus;whiteSpace=wrap;html=1;" vertex="1" parent="1">
          <mxGeometry x="-30" y="-100" width="120" height="80" as="geometry" />
        </mxCell>
        <mxCell id="WSwrUoSP9K7NW8e2uTdf-100" value="" style="shape=link;html=1;rounded=0;exitX=0.25;exitY=1;exitDx=0;exitDy=0;" edge="1" parent="1" source="WSwrUoSP9K7NW8e2uTdf-32" target="WSwrUoSP9K7NW8e2uTdf-91">
          <mxGeometry relative="1" as="geometry">
            <mxPoint x="260" y="60" as="sourcePoint" />
            <mxPoint x="260" y="170" as="targetPoint" />
          </mxGeometry>
        </mxCell>
        <mxCell id="WSwrUoSP9K7NW8e2uTdf-105" value="UpdatesRoom" style="rhombus;whiteSpace=wrap;html=1;" vertex="1" parent="1">
          <mxGeometry x="-210" y="30" width="120" height="80" as="geometry" />
        </mxCell>
        <mxCell id="WSwrUoSP9K7NW8e2uTdf-108" value="Monitors" style="rhombus;whiteSpace=wrap;html=1;" vertex="1" parent="1">
          <mxGeometry x="-220" y="210" width="120" height="80" as="geometry" />
        </mxCell>
        <mxCell id="WSwrUoSP9K7NW8e2uTdf-111" value="" style="group" vertex="1" connectable="0" parent="1">
          <mxGeometry x="565" y="310" width="150" height="100" as="geometry" />
        </mxCell>
        <mxCell id="WSwrUoSP9K7NW8e2uTdf-112" value="" style="rhombus;whiteSpace=wrap;html=1;" vertex="1" parent="WSwrUoSP9K7NW8e2uTdf-111">
          <mxGeometry width="150" height="100" as="geometry" />
        </mxCell>
        <mxCell id="WSwrUoSP9K7NW8e2uTdf-113" value="Schedules" style="rhombus;whiteSpace=wrap;html=1;" vertex="1" parent="WSwrUoSP9K7NW8e2uTdf-111">
          <mxGeometry x="15" y="10" width="120" height="80" as="geometry" />
        </mxCell>
        <mxCell id="WSwrUoSP9K7NW8e2uTdf-114" value="" style="group" vertex="1" connectable="0" parent="1">
          <mxGeometry x="770" y="230" width="150" height="100" as="geometry" />
        </mxCell>
        <mxCell id="WSwrUoSP9K7NW8e2uTdf-115" value="" style="rhombus;whiteSpace=wrap;html=1;" vertex="1" parent="WSwrUoSP9K7NW8e2uTdf-114">
          <mxGeometry width="150" height="100" as="geometry" />
        </mxCell>
        <mxCell id="WSwrUoSP9K7NW8e2uTdf-116" value="Manages" style="rhombus;whiteSpace=wrap;html=1;" vertex="1" parent="WSwrUoSP9K7NW8e2uTdf-114">
          <mxGeometry x="15" y="10" width="120" height="80" as="geometry" />
        </mxCell>
        <mxCell id="WSwrUoSP9K7NW8e2uTdf-120" value="" style="group" vertex="1" connectable="0" parent="1">
          <mxGeometry x="840" y="90" width="150" height="100" as="geometry" />
        </mxCell>
        <mxCell id="WSwrUoSP9K7NW8e2uTdf-121" value="" style="rhombus;whiteSpace=wrap;html=1;" vertex="1" parent="WSwrUoSP9K7NW8e2uTdf-120">
          <mxGeometry width="150" height="100" as="geometry" />
        </mxCell>
        <mxCell id="WSwrUoSP9K7NW8e2uTdf-122" value="Schedules" style="rhombus;whiteSpace=wrap;html=1;" vertex="1" parent="WSwrUoSP9K7NW8e2uTdf-120">
          <mxGeometry x="15" y="10" width="120" height="80" as="geometry" />
        </mxCell>
        <mxCell id="WSwrUoSP9K7NW8e2uTdf-123" value="" style="group" vertex="1" connectable="0" parent="1">
          <mxGeometry x="215" y="90" width="150" height="100" as="geometry" />
        </mxCell>
        <mxCell id="WSwrUoSP9K7NW8e2uTdf-124" value="" style="rhombus;whiteSpace=wrap;html=1;" vertex="1" parent="WSwrUoSP9K7NW8e2uTdf-123">
          <mxGeometry width="150" height="100" as="geometry" />
        </mxCell>
        <mxCell id="WSwrUoSP9K7NW8e2uTdf-125" value="Registered" style="rhombus;whiteSpace=wrap;html=1;" vertex="1" parent="WSwrUoSP9K7NW8e2uTdf-123">
          <mxGeometry x="15" y="10" width="120" height="80" as="geometry" />
        </mxCell>
        <mxCell id="WSwrUoSP9K7NW8e2uTdf-126" value="" style="shape=link;html=1;rounded=0;entryX=0.5;entryY=0;entryDx=0;entryDy=0;exitX=0.5;exitY=1;exitDx=0;exitDy=0;" edge="1" parent="1" source="WSwrUoSP9K7NW8e2uTdf-124" target="cgsZbXqbfDDy_r3Hs2pA-57">
          <mxGeometry relative="1" as="geometry">
            <mxPoint x="650" y="410" as="sourcePoint" />
            <mxPoint x="650" y="530" as="targetPoint" />
          </mxGeometry>
        </mxCell>
        <mxCell id="WSwrUoSP9K7NW8e2uTdf-128" style="rounded=0;orthogonalLoop=1;jettySize=auto;html=1;entryX=0;entryY=0.5;entryDx=0;entryDy=0;exitX=1;exitY=0.5;exitDx=0;exitDy=0;endArrow=none;endFill=0;" edge="1" parent="1" source="WSwrUoSP9K7NW8e2uTdf-124" target="cgsZbXqbfDDy_r3Hs2pA-1">
          <mxGeometry relative="1" as="geometry">
            <mxPoint x="460" y="140" as="sourcePoint" />
          </mxGeometry>
        </mxCell>
        <mxCell id="WSwrUoSP9K7NW8e2uTdf-129" value="" style="group" vertex="1" connectable="0" parent="1">
          <mxGeometry x="215" y="585" width="150" height="100" as="geometry" />
        </mxCell>
        <mxCell id="WSwrUoSP9K7NW8e2uTdf-130" value="" style="rhombus;whiteSpace=wrap;html=1;" vertex="1" parent="WSwrUoSP9K7NW8e2uTdf-129">
          <mxGeometry width="150" height="100" as="geometry" />
        </mxCell>
        <mxCell id="WSwrUoSP9K7NW8e2uTdf-131" value="has" style="rhombus;whiteSpace=wrap;html=1;" vertex="1" parent="WSwrUoSP9K7NW8e2uTdf-129">
          <mxGeometry x="15" y="10" width="120" height="80" as="geometry" />
        </mxCell>
        <mxCell id="WSwrUoSP9K7NW8e2uTdf-132" value="" style="shape=link;html=1;rounded=0;entryX=0.5;entryY=0;entryDx=0;entryDy=0;exitX=0.5;exitY=1;exitDx=0;exitDy=0;" edge="1" parent="1" source="cgsZbXqbfDDy_r3Hs2pA-57" target="WSwrUoSP9K7NW8e2uTdf-130">
          <mxGeometry relative="1" as="geometry">
            <mxPoint x="348" y="175" as="sourcePoint" />
            <mxPoint x="300" y="350" as="targetPoint" />
          </mxGeometry>
        </mxCell>
        <mxCell id="WSwrUoSP9K7NW8e2uTdf-133" style="edgeStyle=orthogonalEdgeStyle;rounded=0;orthogonalLoop=1;jettySize=auto;html=1;exitX=0;exitY=0.5;exitDx=0;exitDy=0;entryX=1;entryY=0.5;entryDx=0;entryDy=0;" edge="1" parent="1" source="WSwrUoSP9K7NW8e2uTdf-130" target="cgsZbXqbfDDy_r3Hs2pA-52">
          <mxGeometry relative="1" as="geometry" />
        </mxCell>
        <mxCell id="WSwrUoSP9K7NW8e2uTdf-155" style="rounded=0;orthogonalLoop=1;jettySize=auto;html=1;entryX=0;entryY=0.5;entryDx=0;entryDy=0;" edge="1" parent="1" source="WSwrUoSP9K7NW8e2uTdf-152" target="cgsZbXqbfDDy_r3Hs2pA-8">
          <mxGeometry relative="1" as="geometry" />
        </mxCell>
        <mxCell id="WSwrUoSP9K7NW8e2uTdf-152" value="Assigned" style="rhombus;whiteSpace=wrap;html=1;" vertex="1" parent="1">
          <mxGeometry x="-30" y="880" width="120" height="80" as="geometry" />
        </mxCell>
        <mxCell id="WSwrUoSP9K7NW8e2uTdf-154" value="" style="shape=link;html=1;rounded=0;exitX=0.5;exitY=1;exitDx=0;exitDy=0;" edge="1" parent="1" source="cgsZbXqbfDDy_r3Hs2pA-52" target="WSwrUoSP9K7NW8e2uTdf-152">
          <mxGeometry relative="1" as="geometry">
            <mxPoint x="110" y="870" as="sourcePoint" />
            <mxPoint x="110" y="1005" as="targetPoint" />
          </mxGeometry>
        </mxCell>
        <mxCell id="WSwrUoSP9K7NW8e2uTdf-156" value="" style="group" vertex="1" connectable="0" parent="1">
          <mxGeometry x="565" y="870" width="150" height="100" as="geometry" />
        </mxCell>
        <mxCell id="WSwrUoSP9K7NW8e2uTdf-157" value="" style="rhombus;whiteSpace=wrap;html=1;" vertex="1" parent="WSwrUoSP9K7NW8e2uTdf-156">
          <mxGeometry width="150" height="100" as="geometry" />
        </mxCell>
        <mxCell id="WSwrUoSP9K7NW8e2uTdf-158" value="Scheduled" style="rhombus;whiteSpace=wrap;html=1;" vertex="1" parent="WSwrUoSP9K7NW8e2uTdf-156">
          <mxGeometry x="15" y="10" width="120" height="80" as="geometry" />
        </mxCell>
        <mxCell id="WSwrUoSP9K7NW8e2uTdf-160" style="rounded=0;orthogonalLoop=1;jettySize=auto;html=1;entryX=1;entryY=0.5;entryDx=0;entryDy=0;exitX=0;exitY=0.5;exitDx=0;exitDy=0;endArrow=classic;endFill=1;" edge="1" parent="1" source="WSwrUoSP9K7NW8e2uTdf-157" target="cgsZbXqbfDDy_r3Hs2pA-8">
          <mxGeometry relative="1" as="geometry" />
        </mxCell>
        <mxCell id="WSwrUoSP9K7NW8e2uTdf-172" value="" style="shape=link;html=1;rounded=0;entryX=0.5;entryY=0;entryDx=0;entryDy=0;exitX=0.5;exitY=1;exitDx=0;exitDy=0;" edge="1" parent="1" source="cgsZbXqbfDDy_r3Hs2pA-42" target="WSwrUoSP9K7NW8e2uTdf-157">
          <mxGeometry relative="1" as="geometry">
            <mxPoint x="650" y="410" as="sourcePoint" />
            <mxPoint x="650" y="530" as="targetPoint" />
          </mxGeometry>
        </mxCell>
        <mxCell id="WSwrUoSP9K7NW8e2uTdf-173" value="" style="shape=link;html=1;rounded=0;exitX=0;exitY=1;exitDx=0;exitDy=0;entryX=0.5;entryY=0;entryDx=0;entryDy=0;" edge="1" parent="1" source="WSwrUoSP9K7NW8e2uTdf-108" target="WSwrUoSP9K7NW8e2uTdf-28">
          <mxGeometry relative="1" as="geometry">
            <mxPoint x="-240" y="270" as="sourcePoint" />
            <mxPoint x="-290" y="340" as="targetPoint" />
          </mxGeometry>
        </mxCell>
        <mxCell id="WSwrUoSP9K7NW8e2uTdf-175" value="" style="shape=link;html=1;rounded=0;exitX=0.5;exitY=1;exitDx=0;exitDy=0;entryX=0;entryY=0;entryDx=0;entryDy=0;" edge="1" parent="1" source="WSwrUoSP9K7NW8e2uTdf-24" target="WSwrUoSP9K7NW8e2uTdf-105">
          <mxGeometry relative="1" as="geometry">
            <mxPoint x="175" y="-140" as="sourcePoint" />
            <mxPoint x="70" y="-70" as="targetPoint" />
          </mxGeometry>
        </mxCell>
        <mxCell id="WSwrUoSP9K7NW8e2uTdf-176" value="" style="group" vertex="1" connectable="0" parent="1">
          <mxGeometry x="220" y="1200" width="180" height="180" as="geometry" />
        </mxCell>
        <mxCell id="cgsZbXqbfDDy_r3Hs2pA-28" value="" style="rounded=0;whiteSpace=wrap;html=1;" parent="WSwrUoSP9K7NW8e2uTdf-176" vertex="1">
          <mxGeometry width="180" height="180" as="geometry" />
        </mxCell>
        <mxCell id="cgsZbXqbfDDy_r3Hs2pA-29" value="trainer_schedule" style="swimlane;fontStyle=0;childLayout=stackLayout;horizontal=1;startSize=30;horizontalStack=0;resizeParent=1;resizeParentMax=0;resizeLast=0;collapsible=1;marginBottom=0;whiteSpace=wrap;html=1;" parent="WSwrUoSP9K7NW8e2uTdf-176" vertex="1">
          <mxGeometry x="11.25" y="10.294117647058783" width="157.5" height="153.52941176470586" as="geometry" />
        </mxCell>
        <mxCell id="cgsZbXqbfDDy_r3Hs2pA-31" value="availability" style="text;strokeColor=none;fillColor=none;align=left;verticalAlign=middle;spacingLeft=4;spacingRight=4;overflow=hidden;points=[[0,0.5],[1,0.5]];portConstraint=eastwest;rotatable=1;whiteSpace=wrap;html=1;movable=1;resizable=1;deletable=1;editable=1;locked=0;connectable=1;" parent="cgsZbXqbfDDy_r3Hs2pA-29" vertex="1">
          <mxGeometry y="30" width="157.5" height="30.882352941176467" as="geometry" />
        </mxCell>
        <mxCell id="cgsZbXqbfDDy_r3Hs2pA-32" value="&lt;span style=&quot;white-space: pre;&quot;&gt;&#x9;&lt;/span&gt;available_day" style="text;strokeColor=none;fillColor=none;align=left;verticalAlign=middle;spacingLeft=4;spacingRight=4;overflow=hidden;points=[[0,0.5],[1,0.5]];portConstraint=eastwest;rotatable=1;whiteSpace=wrap;html=1;movable=1;resizable=1;deletable=1;editable=1;locked=0;connectable=1;" parent="cgsZbXqbfDDy_r3Hs2pA-29" vertex="1">
          <mxGeometry y="60.882352941176464" width="157.5" height="30.882352941176467" as="geometry" />
        </mxCell>
        <mxCell id="WSwrUoSP9K7NW8e2uTdf-55" value="&lt;span style=&quot;white-space: pre;&quot;&gt;&#x9;&lt;/span&gt;available_start_time" style="text;strokeColor=none;fillColor=none;align=left;verticalAlign=middle;spacingLeft=4;spacingRight=4;overflow=hidden;points=[[0,0.5],[1,0.5]];portConstraint=eastwest;rotatable=1;whiteSpace=wrap;html=1;movable=1;resizable=1;deletable=1;editable=1;locked=0;connectable=1;" vertex="1" parent="cgsZbXqbfDDy_r3Hs2pA-29">
          <mxGeometry y="91.76470588235293" width="157.5" height="30.882352941176467" as="geometry" />
        </mxCell>
        <mxCell id="WSwrUoSP9K7NW8e2uTdf-42" value="&lt;span style=&quot;white-space: pre;&quot;&gt;&#x9;&lt;/span&gt;available_end_time" style="text;strokeColor=none;fillColor=none;align=left;verticalAlign=middle;spacingLeft=4;spacingRight=4;overflow=hidden;points=[[0,0.5],[1,0.5]];portConstraint=eastwest;rotatable=1;whiteSpace=wrap;html=1;movable=1;resizable=1;deletable=1;editable=1;locked=0;connectable=1;" vertex="1" parent="cgsZbXqbfDDy_r3Hs2pA-29">
          <mxGeometry y="122.64705882352939" width="157.5" height="30.882352941176467" as="geometry" />
        </mxCell>
        <mxCell id="WSwrUoSP9K7NW8e2uTdf-12" value="" style="rounded=0;whiteSpace=wrap;html=1;" vertex="1" parent="1">
          <mxGeometry x="957" y="350" width="140" height="110" as="geometry" />
        </mxCell>
        <mxCell id="WSwrUoSP9K7NW8e2uTdf-13" value="goals" style="swimlane;fontStyle=0;childLayout=stackLayout;horizontal=1;startSize=30;horizontalStack=0;resizeParent=1;resizeParentMax=0;resizeLast=0;collapsible=1;marginBottom=0;whiteSpace=wrap;html=1;" vertex="1" parent="1">
          <mxGeometry x="965.75" y="360" width="122.5" height="90" as="geometry" />
        </mxCell>
        <mxCell id="WSwrUoSP9K7NW8e2uTdf-15" value="goal" style="text;strokeColor=none;fillColor=none;align=left;verticalAlign=middle;spacingLeft=4;spacingRight=4;overflow=hidden;points=[[0,0.5],[1,0.5]];portConstraint=eastwest;rotatable=0;whiteSpace=wrap;html=1;" vertex="1" parent="WSwrUoSP9K7NW8e2uTdf-13">
          <mxGeometry y="30" width="122.5" height="30" as="geometry" />
        </mxCell>
        <mxCell id="WSwrUoSP9K7NW8e2uTdf-16" value="target" style="text;strokeColor=none;fillColor=none;align=left;verticalAlign=middle;spacingLeft=4;spacingRight=4;overflow=hidden;points=[[0,0.5],[1,0.5]];portConstraint=eastwest;rotatable=0;whiteSpace=wrap;html=1;" vertex="1" parent="WSwrUoSP9K7NW8e2uTdf-13">
          <mxGeometry y="60" width="122.5" height="30" as="geometry" />
        </mxCell>
        <mxCell id="WSwrUoSP9K7NW8e2uTdf-178" value="" style="group" vertex="1" connectable="0" parent="1">
          <mxGeometry x="1120" y="55" width="140" height="170" as="geometry" />
        </mxCell>
        <mxCell id="WSwrUoSP9K7NW8e2uTdf-6" value="" style="rounded=0;whiteSpace=wrap;html=1;" vertex="1" parent="WSwrUoSP9K7NW8e2uTdf-178">
          <mxGeometry width="140" height="170" as="geometry" />
        </mxCell>
        <mxCell id="WSwrUoSP9K7NW8e2uTdf-7" value="dashboard" style="swimlane;fontStyle=0;childLayout=stackLayout;horizontal=1;startSize=30;horizontalStack=0;resizeParent=1;resizeParentMax=0;resizeLast=0;collapsible=1;marginBottom=0;whiteSpace=wrap;html=1;" vertex="1" parent="WSwrUoSP9K7NW8e2uTdf-178">
          <mxGeometry x="8.75" y="10" width="122.5" height="150" as="geometry" />
        </mxCell>
        <mxCell id="WSwrUoSP9K7NW8e2uTdf-9" value="exercise" style="text;strokeColor=none;fillColor=none;align=left;verticalAlign=middle;spacingLeft=4;spacingRight=4;overflow=hidden;points=[[0,0.5],[1,0.5]];portConstraint=eastwest;rotatable=0;whiteSpace=wrap;html=1;" vertex="1" parent="WSwrUoSP9K7NW8e2uTdf-7">
          <mxGeometry y="30" width="122.5" height="30" as="geometry" />
        </mxCell>
        <mxCell id="WSwrUoSP9K7NW8e2uTdf-49" value="exercise_routine" style="text;strokeColor=none;fillColor=none;align=left;verticalAlign=middle;spacingLeft=4;spacingRight=4;overflow=hidden;points=[[0,0.5],[1,0.5]];portConstraint=eastwest;rotatable=0;whiteSpace=wrap;html=1;" vertex="1" parent="WSwrUoSP9K7NW8e2uTdf-7">
          <mxGeometry y="60" width="122.5" height="30" as="geometry" />
        </mxCell>
        <mxCell id="WSwrUoSP9K7NW8e2uTdf-50" value="personal_best" style="text;strokeColor=none;fillColor=none;align=left;verticalAlign=middle;spacingLeft=4;spacingRight=4;overflow=hidden;points=[[0,0.5],[1,0.5]];portConstraint=eastwest;rotatable=0;whiteSpace=wrap;html=1;" vertex="1" parent="WSwrUoSP9K7NW8e2uTdf-7">
          <mxGeometry y="90" width="122.5" height="30" as="geometry" />
        </mxCell>
        <mxCell id="WSwrUoSP9K7NW8e2uTdf-10" value="body_weight" style="text;strokeColor=none;fillColor=none;align=left;verticalAlign=middle;spacingLeft=4;spacingRight=4;overflow=hidden;points=[[0,0.5],[1,0.5]];portConstraint=eastwest;rotatable=0;whiteSpace=wrap;html=1;" vertex="1" parent="WSwrUoSP9K7NW8e2uTdf-7">
          <mxGeometry y="120" width="122.5" height="30" as="geometry" />
        </mxCell>
        <mxCell id="WSwrUoSP9K7NW8e2uTdf-179" value="" style="group" vertex="1" connectable="0" parent="1">
          <mxGeometry x="220" y="350" width="140" height="80" as="geometry" />
        </mxCell>
        <mxCell id="cgsZbXqbfDDy_r3Hs2pA-57" value="" style="rounded=0;whiteSpace=wrap;html=1;" parent="WSwrUoSP9K7NW8e2uTdf-179" vertex="1">
          <mxGeometry width="140" height="80" as="geometry" />
        </mxCell>
        <mxCell id="cgsZbXqbfDDy_r3Hs2pA-58" value="class_regestration" style="swimlane;fontStyle=0;childLayout=stackLayout;horizontal=1;startSize=30;horizontalStack=0;resizeParent=1;resizeParentMax=0;resizeLast=0;collapsible=1;marginBottom=0;whiteSpace=wrap;html=1;" parent="WSwrUoSP9K7NW8e2uTdf-179" vertex="1">
          <mxGeometry x="8.75" y="10" width="122.5" height="60" as="geometry" />
        </mxCell>
      </root>
    </mxGraphModel>
  </diagram>
</mxfile>
